# Blender v2.79 (sub 0) OBJ File: ''
# www.blender.org
mtllib MachineFinished.mtl
o Cube_Cube.001
v -1.000000 -1.000000 1.000000
v -1.000000 1.000000 1.000000
v -1.000000 1.000000 -1.000000
v -1.000000 -1.000000 -1.000000
v 1.000000 1.000000 -1.000000
v 1.000000 -1.000000 -1.000000
v 1.000000 1.000000 1.000000
v 1.000000 -1.000000 1.000000
vt 0.279653 0.956583
vt 0.519755 0.956583
vt 0.519755 0.012087
vt 0.279653 0.012087
vt 0.279937 0.958118
vt 0.519077 0.958118
vt 0.519077 0.009994
vt 0.279937 0.009994
vt 0.278599 0.959043
vt 0.518702 0.959043
vt 0.518702 0.014547
vt 0.278599 0.014547
vt 0.278530 0.960579
vt 0.517671 0.960579
vt 0.517671 0.012455
vt 0.278530 0.012455
vn -1.0000 -0.0000 0.0000
vn 0.0000 0.0000 -1.0000
vn 1.0000 0.0000 0.0000
vn 0.0000 -0.0000 1.0000
usemtl None
s 1
f 1/1/1 2/2/1 3/3/1 4/4/1
f 4/5/2 3/6/2 5/7/2 6/8/2
f 6/9/3 5/10/3 7/11/3 8/12/3
f 8/13/4 7/14/4 2/15/4 1/16/4
